<svg width="182" height="60" viewBox="0 0 182 60" fill="none" xmlns="http://www.w3.org/2000/svg">
<path d="M99.3902 15.8862C99.8521 15.8805 100.279 16.1121 100.571 16.5001C100.869 16.8824 101.016 17.3631 101.016 17.8785V21.4519H94.9057V25.3322H101.016V34.7724H106.313V16.309C106.313 15.7067 106.225 15.1391 106.044 14.6063C105.863 14.0735 105.623 13.616 105.331 13.2337C105.032 12.8573 104.687 12.5619 104.29 12.336C103.898 12.116 103.495 12.0117 103.056 12.0117H90.8421C90.4036 12.0117 89.9944 12.1218 89.6085 12.336C89.205 12.5619 88.8659 12.8573 88.5736 13.2337C88.2812 13.6102 88.0415 14.0677 87.8603 14.6063C87.679 15.1391 87.5913 15.7009 87.5913 16.309V34.784H92.8885V17.8785C92.8885 17.3631 93.0347 16.8824 93.3329 16.5001C93.6194 16.1179 94.0579 15.8805 94.5198 15.8862H99.3902Z" fill="white"/>
<path d="M112.552 12.0059H107.254V34.7781H112.552V12.0059Z" fill="white"/>
<path d="M142.791 12.0059H137.494V34.7781H142.791V12.0059Z" fill="white"/>
<path d="M182 12.0059H163.261V15.8572H169.552H169.961V34.7781H175.282V15.8572H182V12.0059Z" fill="white"/>
<path d="M86.3634 14.6005C86.1763 14.0676 85.9424 13.6101 85.6501 13.2279C85.3577 12.8514 85.0128 12.5561 84.6093 12.3302C84.2176 12.1101 83.8142 12.0059 83.3698 12.0059H67.8933V21.029V25.7549V34.7838H73.1905V25.3321H76.5349V21.4518H73.1905V15.8862H79.7039C80.1658 15.8804 80.5984 16.112 80.8849 16.5001C81.1831 16.8823 81.3293 17.363 81.3293 17.8784V28.9286C81.3293 29.4499 81.1773 29.9364 80.8674 30.307C80.5692 30.6777 80.1541 30.9035 79.7039 30.8978H75.2194V34.7781L83.364 34.7838C83.8083 34.7781 84.2059 34.6738 84.5977 34.4595C85.0011 34.2337 85.3402 33.9325 85.6384 33.5561C85.9307 33.1796 86.1704 32.7221 86.3517 32.1835C86.5329 31.6506 86.6206 31.0889 86.6206 30.4808V16.3089C86.6323 15.7008 86.5446 15.1333 86.3634 14.6005Z" fill="white"/>
<path d="M98.2908 35.2012H95.2271V38.2301H98.2908V35.2012Z" fill="white"/>
<path d="M150.655 30.8977C150.193 30.9035 149.76 30.6661 149.474 30.2838C149.176 29.9074 149.03 29.4209 149.03 28.9055V25.7549V17.8784C149.03 17.363 149.176 16.8823 149.474 16.5001C149.76 16.1178 150.193 15.8804 150.655 15.8862H162.466V12.0059H146.989C146.551 12.0059 146.147 12.1159 145.755 12.3302C145.352 12.5561 145.007 12.8514 144.715 13.2279C144.422 13.6101 144.183 14.0676 144.001 14.6005C143.82 15.1333 143.727 15.7008 143.727 16.3032V30.4692C143.727 31.0773 143.82 31.6391 144.001 32.1719C144.183 32.7105 144.422 33.1622 144.715 33.5445C145.007 33.9209 145.346 34.2221 145.755 34.4479C146.147 34.668 146.551 34.7723 146.989 34.7723H162.466V30.892H150.655V30.8977ZM162.466 25.3321V21.4518H151.041V25.3321H162.466Z" fill="white"/>
<path d="M155.479 35.2012H152.421V38.2301H155.479V35.2012Z" fill="white"/>
<path d="M155.449 11.4788H158.233L156.116 7.62744H151.778L149.667 11.4788H152.456L153.573 9.44597L153.953 8.76258L155.449 11.4788Z" fill="white"/>
<path d="M123.619 12.0059H123.602L123.643 12.1506L123.619 12.0059ZM136.763 12.0059H131.729H130.665L128.139 27.3997C128.127 27.4866 128.115 27.5676 128.104 27.6487L128.092 27.7008L128.086 27.695C128.022 28.0136 127.934 28.2974 127.829 28.529C127.817 28.5464 127.806 28.5696 127.8 28.5927C127.771 28.6564 127.735 28.7143 127.706 28.7723C127.665 28.8418 127.619 28.8997 127.572 28.9576C127.548 28.9808 127.525 28.9981 127.507 29.0155C127.472 29.056 127.426 29.085 127.385 29.1082C127.367 29.1198 127.35 29.1313 127.332 29.1429C127.268 29.1719 127.203 29.1893 127.139 29.1893C127.069 29.1893 127.01 29.1661 126.946 29.1429C126.923 29.1313 126.911 29.1198 126.888 29.1082C126.841 29.085 126.806 29.056 126.765 29.0155C126.741 28.9923 126.724 28.9808 126.701 28.9576C126.654 28.9055 126.607 28.8418 126.56 28.7723C126.525 28.7201 126.496 28.6564 126.467 28.5927C126.455 28.5696 126.443 28.5464 126.437 28.529C126.326 28.2916 126.239 28.0136 126.174 27.695L126.168 27.7008L126.163 27.6487C126.145 27.5676 126.133 27.4866 126.122 27.3997L123.602 12.0059H122.549H117.521H117.205L121.555 31.2568C121.643 31.5985 121.742 31.9344 121.888 32.253C122.128 32.7858 122.421 33.2433 122.76 33.6255C123.099 34.002 123.473 34.3032 123.9 34.529C124.315 34.7491 124.73 34.8533 125.174 34.8533H125.286H125.625H128.753H128.998H129.109C129.548 34.8533 129.969 34.7491 130.384 34.529C130.811 34.3032 131.191 34.002 131.524 33.6255C131.863 33.2491 132.15 32.7916 132.395 32.253C132.542 31.9344 132.641 31.5985 132.723 31.2568L137.073 12.0059H136.763Z" fill="white"/>
<path d="M68.6299 51.4228V48.2548H67.9751V47.6583H68.6299V44.7915H70.9277C71.9743 44.7915 72.7695 45.0521 73.3191 45.5791C73.8687 46.1062 74.1435 46.8938 74.1435 47.9479C74.1435 50.2645 73.0735 51.4228 70.9277 51.4228H68.6299ZM69.5245 45.5328V47.6583H71.53V48.2548H69.5245V50.6757H71.0038C71.1675 50.6757 71.3253 50.6641 71.4773 50.6409C71.6294 50.6177 71.8223 50.5598 72.0562 50.4556C72.2901 50.3513 72.483 50.2181 72.6467 50.0444C72.8104 49.8706 72.9508 49.6158 73.0735 49.2741C73.1963 48.9324 73.2548 48.5328 73.2548 48.0695C73.2548 47.2413 73.0794 46.61 72.7286 46.1815C72.3778 45.7529 71.8106 45.5386 71.0213 45.5386H69.5245V45.5328Z" fill="white"/>
<path d="M77.248 51.4229L79.7797 44.7627H80.8088L83.2469 51.4229H82.2412L81.5689 49.4249H78.9085L78.1777 51.4229H77.248ZM79.1658 48.6893H81.2648L80.2416 45.7473L79.1658 48.6893ZM79.8148 52.7781V51.8283H80.6684V52.7781H79.8148Z" fill="white"/>
<path d="M86.7317 44.7915H87.6204V51.4228H86.7317V44.7915Z" fill="white"/>
<path d="M99.577 51.4228H98.5655L96.2151 44.7915H97.174L99.0859 50.5425H99.1034L101.033 44.7915H101.963L99.577 51.4228Z" fill="white"/>
<path d="M105.313 44.7915H106.202V51.4228H105.313V44.7915Z" fill="white"/>
<path d="M110.376 51.4229V44.7627H115.282V45.5793H111.271V47.5947H114.984V48.365H111.271V50.6295H115.358V51.4171H110.376V51.4229ZM112.318 43.0947H113.189L114.118 44.4036H113.37L112.75 43.5291L112.13 44.4036H111.388L112.318 43.0947ZM112.551 52.7781V51.8283H113.405V52.7781H112.551Z" fill="white"/>
<path d="M120.69 45.5328H118.457V44.7915H123.812V45.5328H121.579V51.4228H120.69V45.5328Z" fill="white"/>
<path d="M137.377 50.5947C137.126 50.9248 136.816 51.1681 136.436 51.3302C136.056 51.4924 135.658 51.5735 135.231 51.5735C134.588 51.5735 134.021 51.4171 133.524 51.0986C133.033 50.78 132.659 50.3746 132.413 49.8708C132.167 49.3669 132.045 48.8225 132.045 48.2376C132.045 47.2183 132.325 46.3611 132.881 45.6719C133.436 44.9827 134.22 44.6353 135.231 44.6353C135.997 44.6353 136.64 44.8148 137.161 45.1797C137.675 45.5445 137.991 46.0947 138.114 46.836H137.225C137.137 46.3553 136.915 45.9905 136.558 45.7472C136.202 45.504 135.763 45.3824 135.237 45.3824C134.483 45.3824 133.91 45.6546 133.524 46.2048C133.138 46.7549 132.945 47.4152 132.945 48.197C132.945 48.9268 133.15 49.5522 133.559 50.0677C133.968 50.5831 134.53 50.8438 135.243 50.8438C135.915 50.8438 136.453 50.641 136.839 50.2299C137.231 49.8187 137.412 49.3032 137.389 48.6777H135.237V47.9364H138.172V51.4287H137.611L137.377 50.5947Z" fill="white"/>
<path d="M142.095 44.7915H145.247C145.884 44.7915 146.381 44.9479 146.743 45.2548C147.1 45.5618 147.281 45.9903 147.281 46.529C147.281 46.9517 147.188 47.3108 146.995 47.6062C146.802 47.9015 146.51 48.1042 146.118 48.2085V48.2259C146.469 48.2954 146.714 48.4401 146.849 48.666C146.983 48.8919 147.077 49.1988 147.118 49.5927C147.123 49.6564 147.129 49.7838 147.141 49.9749C147.153 50.166 147.159 50.305 147.17 50.3977C147.182 50.4903 147.199 50.6062 147.223 50.7568C147.246 50.9073 147.287 51.0347 147.334 51.139C147.387 51.2432 147.445 51.3417 147.509 51.4286H146.515C146.439 51.3475 146.393 51.2201 146.375 51.0521C146.358 50.8842 146.34 50.6699 146.334 50.4208C146.322 50.1718 146.305 49.9633 146.276 49.7954C146.246 49.6042 146.211 49.4479 146.176 49.332C146.141 49.2162 146.083 49.0946 146.007 48.9672C145.931 48.8398 145.82 48.7471 145.679 48.6892C145.539 48.6313 145.364 48.6023 145.159 48.6023H142.984V51.4344H142.095V44.7915ZM144.837 47.8494C145.311 47.8494 145.691 47.7625 145.966 47.5946C146.246 47.4266 146.381 47.1139 146.381 46.6679C146.381 46.3147 146.282 46.0367 146.083 45.834C145.884 45.6313 145.586 45.5328 145.188 45.5328H142.978V47.8436H144.837V47.8494Z" fill="white"/>
<path d="M150.743 48.1043C150.743 47.4846 150.86 46.917 151.088 46.4016C151.322 45.8862 151.684 45.4634 152.181 45.1275C152.678 44.7974 153.269 44.6294 153.947 44.6294C154.625 44.6294 155.215 44.7974 155.712 45.1275C156.209 45.4576 156.572 45.8804 156.806 46.4016C157.04 46.917 157.151 47.4846 157.151 48.1043C157.151 48.5676 157.081 49.0078 156.946 49.419C156.806 49.8302 156.613 50.195 156.35 50.5194C156.093 50.8437 155.753 51.0985 155.338 51.2838C154.923 51.475 154.461 51.5676 153.947 51.5676C153.432 51.5676 152.97 51.475 152.555 51.2838C152.14 51.0927 151.801 50.8379 151.544 50.5194C151.286 50.195 151.088 49.8302 150.947 49.419C150.813 49.0078 150.743 48.5734 150.743 48.1043ZM151.865 46.8012C151.713 47.2008 151.637 47.6352 151.637 48.1043C151.637 48.5734 151.713 49.0078 151.865 49.4074C152.017 49.807 152.275 50.1429 152.631 50.4209C152.988 50.6989 153.432 50.8321 153.947 50.8321C154.467 50.8321 154.906 50.6931 155.262 50.4209C155.619 50.1429 155.876 49.807 156.028 49.4074C156.18 49.0078 156.256 48.5734 156.256 48.1043C156.256 47.6352 156.18 47.2008 156.028 46.8012C155.876 46.4016 155.619 46.0657 155.262 45.7877C154.906 45.5097 154.461 45.3765 153.947 45.3765C153.426 45.3765 152.988 45.5155 152.631 45.7877C152.275 46.0657 152.017 46.4016 151.865 46.8012Z" fill="white"/>
<path d="M166.196 49.0252C166.196 49.8649 165.968 50.502 165.518 50.9306C165.062 51.3591 164.413 51.5734 163.565 51.5734C161.735 51.5734 160.817 50.7279 160.817 49.031V44.7974H161.706V49.031C161.706 49.6275 161.863 50.0734 162.185 50.3804C162.507 50.6873 162.963 50.8379 163.565 50.8379C164.132 50.8379 164.565 50.6873 164.863 50.3804C165.161 50.0734 165.307 49.6217 165.307 49.031V44.7974H166.196V49.0252Z" fill="white"/>
<path d="M170.224 44.7915H173.159C173.826 44.7915 174.335 44.9595 174.685 45.3012C175.036 45.6429 175.212 46.1235 175.212 46.749C175.212 47.3745 175.036 47.861 174.685 48.2027C174.335 48.5444 173.826 48.7123 173.159 48.7066H171.113V51.417H170.224V44.7915ZM171.119 47.9652H172.861C173.838 47.971 174.323 47.5656 174.323 46.749C174.323 45.9382 173.838 45.5328 172.861 45.5328H171.119V47.9652Z" fill="white"/>
<path d="M54.9719 12.6313C55.0304 12.7124 55.083 12.7935 55.1415 12.8746C48.8152 17.9479 48.1603 18.1738 43.9448 22.4422L43.9565 22.4769C42.869 23.6873 42.3077 25.1236 42.1323 25.6275C42.1206 25.6622 42.1089 25.697 42.0972 25.7317C42.0797 25.7839 42.068 25.8186 42.068 25.8186C41.8575 26.3514 41.6645 27.0174 41.5242 27.834C41.2143 29.6468 40.4367 31.4074 39.3609 32.919H39.3667C39.3492 32.9364 39.3316 32.9537 39.32 32.9711C39.0393 33.3649 38.7411 33.7472 38.4195 34.1005C37.8465 34.7433 37.0221 35.4441 36.0399 36.1159C35.426 36.5618 34.7711 36.9673 34.0987 37.3495C36.3205 38.5773 38.5423 39.8167 40.729 41.0561C40.9863 41.8147 41.2552 42.5676 41.5417 43.3263L40.3899 43.7144L35.0985 45.5561C34.7536 44.7916 34.4145 44.0213 34.0929 43.2452L27.6965 39.9904C21.7327 41.7395 14.927 42.197 9.24973 42.1622C6.9987 42.2144 4.73013 42.1738 2.53173 42.0174H2.52588C7.20919 52.6043 17.8738 60.0001 30.2866 60.0001C47.0144 60.0001 60.5732 46.5696 60.5732 30.0001C60.5732 23.5252 58.4917 17.531 54.9719 12.6313Z" fill="white"/>
<path d="M30.2866 0C13.5588 0 0 13.4305 0 30C0 31.5869 0.035081 31.749 0.181252 33.2838C0.157864 33.0521 0.169558 33.168 0.181252 33.2838C1.86514 33.695 6.36719 34.6969 11.8164 35.2124C14.161 35.4382 16.681 35.5656 19.1951 35.5425C21.3 35.4614 23.171 35.2819 24.8432 35.0212L23.2762 26.4151C22.3933 25.3089 21.5163 24.1969 20.6451 23.0849L25.5799 22.1757L26.6381 21.9672C27.521 23.0328 28.4097 24.0811 29.3043 25.1351C29.9416 27.8687 30.5614 30.6139 31.1694 33.3475C36.5485 31.1351 37.9342 27.7992 38.2675 25.8359C38.3727 24.9382 38.3376 24.1911 38.3201 23.9479C38.2675 22.3958 37.4255 19.7143 39.5947 18.0869C40.3256 17.5309 41.0155 17.3108 41.6294 17.2471C41.7814 17.2355 42.0913 17.2181 42.4713 17.2471C42.676 17.2645 42.8631 17.2934 43.0385 17.3282C43.4945 17.4209 43.9857 17.5888 44.4242 17.9073L53.4049 12.9093L54.5977 12.1564C49.09 4.78378 40.2554 0 30.2866 0Z" fill="white"/>
</svg>
